<svg height="512" width="512" xml:space="preserve" xmlns="http://www.w3.org/2000/svg"><path d="M448 64h-16v33.594c0 17.656-14.344 32-32 32s-32-14.344-32-32V64h-80v33.594c0 17.656-14.344 32-32 32s-32-14.344-32-32V64h-80v33.594c0 17.656-14.344 32-32 32s-32-14.344-32-32V64H64c-26.5 0-48 21.492-48 48v320c0 26.516 21.5 48 48 48h384c26.5 0 48-21.484 48-48V112c0-26.508-21.5-48-48-48zm16 352c0 8.828-7.188 16-16 16H64c-8.813 0-16-7.172-16-16V192h416v224zM240 96V48c0-8.836 7.156-16 16-16s16 7.164 16 16v48c0 8.844-7.156 16-16 16s-16-7.156-16-16zm144 0V48c0-8.836 7.156-16 16-16s16 7.164 16 16v48c0 8.844-7.156 16-16 16s-16-7.156-16-16zM96 96V48c0-8.836 7.156-16 16-16s16 7.164 16 16v48c0 8.844-7.156 16-16 16s-16-7.156-16-16zm80 168v-32c0-4.422 3.578-8 8-8h48c4.422 0 8 3.578 8 8v32c0 4.422-3.578 8-8 8h-48c-4.422 0-8-3.578-8-8zm96 0v-32c0-4.422 3.578-8 8-8h48c4.422 0 8 3.578 8 8v32c0 4.422-3.578 8-8 8h-48c-4.422 0-8-3.578-8-8zm96 0v-32c0-4.422 3.578-8 8-8h48c4.422 0 8 3.578 8 8v32c0 4.422-3.578 8-8 8h-48c-4.422 0-8-3.578-8-8zM80 328v-32c0-4.422 3.578-8 8-8h48c4.422 0 8 3.578 8 8v32c0 4.422-3.578 8-8 8H88c-4.422 0-8-3.578-8-8zm96 0v-32c0-4.422 3.578-8 8-8h48c4.422 0 8 3.578 8 8v32c0 4.422-3.578 8-8 8h-48c-4.422 0-8-3.578-8-8zm96 0v-32c0-4.422 3.578-8 8-8h48c4.422 0 8 3.578 8 8v32c0 4.422-3.578 8-8 8h-48c-4.422 0-8-3.578-8-8zm96 0v-32c0-4.422 3.578-8 8-8h48c4.422 0 8 3.578 8 8v32c0 4.422-3.578 8-8 8h-48c-4.422 0-8-3.578-8-8zM80 392v-32c0-4.422 3.578-8 8-8h48c4.422 0 8 3.578 8 8v32c0 4.422-3.578 8-8 8H88c-4.422 0-8-3.578-8-8zm96 0v-32c0-4.422 3.578-8 8-8h48c4.422 0 8 3.578 8 8v32c0 4.422-3.578 8-8 8h-48c-4.422 0-8-3.578-8-8zm96 0v-32c0-4.422 3.578-8 8-8h48c4.422 0 8 3.578 8 8v32c0 4.422-3.578 8-8 8h-48c-4.422 0-8-3.578-8-8z" fill="#EF4E36"/></svg>