<?xml version="1.0" encoding="utf-8"?>
<!-- Generator: Adobe Illustrator 15.1.0, SVG Export Plug-In . SVG Version: 6.00 Build 0)  -->
<!DOCTYPE svg PUBLIC "-//W3C//DTD SVG 1.1//EN" "http://www.w3.org/Graphics/SVG/1.1/DTD/svg11.dtd">
<svg version="1.1" id="Layer_1" xmlns="http://www.w3.org/2000/svg" xmlns:xlink="http://www.w3.org/1999/xlink" x="0px" y="0px"
	 width="1109.131px" height="213.651px" viewBox="0 0 1109.131 213.651" enable-background="new 0 0 1109.131 213.651"
	 xml:space="preserve">
<g>
	<polygon fill="#0862AD" points="58.795,1.085 0,105.106 122.113,105.106 180.908,1.085 	"/>
	<polygon fill="#F9B233" points="239.703,105.106 180.908,209.129 303.021,209.129 361.815,105.106 	"/>
	<polygon fill="#7AA8DA" points="122.113,105.106 180.908,209.129 58.795,209.129 0,105.106 	"/>
	<polygon fill="#EC670A" points="303.021,1.085 361.815,105.106 239.703,105.106 180.908,1.085 	"/>
	<g>
		<path fill="#585657" d="M435.111,28.682h-19.023V3.512h83.704c62.925,0,104.484,37.755,104.484,103.021
			c0,65.56-41.56,103.606-104.484,103.606h-45.95c-13.169,0-18.73-5.561-18.73-18.73V28.682z M470.818,184.969h26.926
			c45.949,0,76.094-27.511,76.094-78.437c0-50.632-30.438-77.851-76.094-77.851h-33.365V178.53
			C464.379,182.628,466.72,184.969,470.818,184.969z"/>
		<path fill="#585657" d="M626.518,184.969h20.195V28.682h-20.195V3.512h68.193v25.17h-20.194v156.287h20.194v25.17h-68.193V184.969
			z"/>
		<path fill="#585657" d="M737.144,28.682H718.12V3.512h90.144c36.291,0,61.754,22.828,61.754,60.584
			c0,34.534-22.537,51.51-37.17,54.729v0.585c0,0,5.268,2.635,8.78,9.365l24.877,49.462c2.927,6.146,7.61,6.731,14.634,6.731h3.805
			v25.17h-14.34c-16.099,0-21.951-2.049-28.684-15.512l-28.096-55.607c-5.27-9.658-9.074-11.122-20.487-11.122h-26.926v82.241
			h-29.268V28.682z M804.459,102.728c22.242,0,35.412-14.341,35.412-37.462s-13.17-36.584-34.828-36.584h-38.632v74.046H804.459z"/>
		<path fill="#585657" d="M1002.891,0c59.705,0,106.24,45.95,106.24,105.362c0,60.876-46.535,108.289-106.24,108.289
			s-105.947-47.413-105.947-108.289C896.943,45.95,943.186,0,1002.891,0z M1002.891,186.14c41.853,0,75.803-35.12,75.803-80.777
			c0-44.194-33.95-78.145-75.803-78.145c-41.852,0-75.51,33.95-75.51,78.145C927.381,151.02,961.039,186.14,1002.891,186.14z"/>
	</g>
</g>
</svg>
